{
    "asset": {
        "version": "2.0",
        "generator": "Open Asset Import Library (assimp v5.4.0)"
    },
    "extensionsUsed": [
        "KHR_materials_volume",
        "FB_ngon_encoding"
    ],
    "accessors": [
        {
            "bufferView": 0,
            "byteOffset": 0,
            "componentType": 5126,
            "count": 7963,
            "type": "VEC3",
            "max": [
                0.8680959939956665,
                0.9896190166473389,
                0.30651000142097473
            ],
            "min": [
                -0.867808997631073,
                -0.9889190196990967,
                -0.3067919909954071
            ]
        },
        {
            "bufferView": 1,
            "byteOffset": 0,
            "componentType": 5126,
            "count": 7963,
            "type": "VEC3",
            "max": [
                0.9999998807907104,
                0.9999337196350098,
                1.0
            ],
            "min": [
                -0.9999997615814209,
                -0.9999918937683105,
                -1.0
            ]
        },
        {
            "bufferView": 2,
            "byteOffset": 0,
            "componentType": 5126,
            "count": 7963,
            "type": "VEC2",
            "max": [
                1.0,
                1.0
            ],
            "min": [
                0.00007098913192749023,
                0.00009101629257202148
            ]
        },
        {
            "bufferView": 3,
            "byteOffset": 0,
            "componentType": 5125,
            "count": 30000,
            "type": "SCALAR",
            "max": [
                7962
            ],
            "min": [
                0
            ]
        }
    ],
    "buffers": [
        {
            "byteLength": 374816,
            "uri": "AquaBadge_0819033816_texture_0.bin"
        }
    ],
    "bufferViews": [
        {
            "buffer": 0,
            "byteOffset": 0,
            "byteLength": 95556,
            "target": 34962
        },
        {
            "buffer": 0,
            "byteOffset": 95556,
            "byteLength": 95556,
            "target": 34962
        },
        {
            "buffer": 0,
            "byteOffset": 191112,
            "byteLength": 63704,
            "target": 34962
        },
        {
            "buffer": 0,
            "byteOffset": 254816,
            "byteLength": 120000,
            "target": 34963
        }
    ],
    "images": [
        {
            "uri": "textures/image_1.png"
        },
        {
            "uri": "textures/image_0.png"
        },
        {
            "uri": "textures/image_2.png"
        }
    ],
    "materials": [
        {
            "name": "Mat_1",
            "pbrMetallicRoughness": {
                "baseColorTexture": {
                    "index": 0
                },
                "metallicRoughnessTexture": {
                    "index": 1
                },
                "metallicFactor": 0.800000011920929
            },
            "normalTexture": {
                "index": 2
            },
            "doubleSided": true
        }
    ],
    "meshes": [
        {
            "name": "meshes[0]",
            "primitives": [
                {
                    "mode": 4,
                    "material": 0,
                    "indices": 3,
                    "attributes": {
                        "POSITION": 0,
                        "NORMAL": 1,
                        "TEXCOORD_0": 2
                    }
                }
            ]
        }
    ],
    "nodes": [
        {
            "name": "AquaBadge_0819033816_texture",
            "children": [
                1
            ]
        },
        {
            "name": "mesh_0",
            "mesh": 0
        }
    ],
    "samplers": [
        {
            "magFilter": 9729,
            "minFilter": 9987
        },
        {
            "magFilter": 9729,
            "minFilter": 9987
        },
        {
            "magFilter": 9729,
            "minFilter": 9987
        }
    ],
    "scenes": [
        {
            "nodes": [
                0
            ]
        }
    ],
    "textures": [
        {
            "source": 0,
            "sampler": 0
        },
        {
            "source": 1,
            "sampler": 1
        },
        {
            "source": 2,
            "sampler": 2
        }
    ],
    "scene": 0
}